# File produced by Open Asset Import Library (http://www.assimp.sf.net)
# (assimp v3.1.202510665)

mtllib Sans%20titre.mtl

# vertex positions
v -45.092754 -0.779000 -59.749756
v -44.736561 -0.779000 -59.393547
v -44.736561 5.521502 -59.393547
v -45.092754 5.541199 -59.749756
v -43.901218 9.249363 -59.393547
v -44.238403 9.440462 -59.749756
v -40.254738 -0.779000 -59.393547
v -39.898540 -0.779000 -59.749756
v -39.898540 5.541199 -59.749756
v -40.254738 5.521502 -59.393547
v -40.752903 9.440462 -59.749756
v -41.090088 9.249363 -59.393547
v -44.736561 5.521502 -103.796829
v -45.092754 5.541199 -103.440628
v -44.238403 9.440462 -103.440628
v -43.901218 9.249363 -103.796829
v -44.736561 -0.779000 -103.796829
v -45.092754 -0.779000 -103.440628
v -39.898540 5.541199 -103.440628
v -40.254738 5.521502 -103.796829
v -41.090088 9.249363 -103.796829
v -40.752903 9.440462 -103.440628
v -39.898540 -0.779000 -103.440628
v -40.254738 -0.779000 -103.796829
v -43.532696 9.529556 -59.393547
v -43.652721 9.885756 -59.749756
v -41.338585 9.885756 -59.749756
v -41.458618 9.529556 -59.393547
v -41.458618 9.529556 -103.796829
v -41.338585 9.885756 -103.440628
v -43.652721 9.885756 -103.440628
v -43.532696 9.529556 -103.796829

# UV coordinates
vt 0.263878 0.117920
vt 0.264519 0.109110
vt 0.374901 0.111615
vt 0.373827 0.120322
vt 0.444504 0.114317
vt 0.443722 0.123237
vt 0.687637 0.103447
vt 0.689364 0.113104
vt 0.579020 0.120305
vt 0.577740 0.112096
vt 0.509577 0.123215
vt 0.509509 0.114488
vt 0.378867 0.891700
vt 0.377698 0.883006
vt 0.446950 0.879410
vt 0.447874 0.888286
vt 0.267764 0.895477
vt 0.266997 0.886674
vt 0.581856 0.881519
vt 0.580563 0.889758
vt 0.512669 0.887857
vt 0.512786 0.879122
vt 0.690927 0.888062
vt 0.689451 0.897716
vt 0.456495 0.114604
vt 0.456493 0.123344
vt 0.496826 0.123350
vt 0.497014 0.114979
vt 0.500266 0.887766
vt 0.500030 0.879062
vt 0.459708 0.879212
vt 0.459795 0.887614
vt 0.560348 0.037854
vt 0.672867 0.022397
vt 0.563569 0.964123
vt 0.675701 0.978900
vt 0.501621 0.934673
vt 0.498324 0.067705
vt 0.503347 0.109678
vt 0.495059 0.075145
vt 0.498331 0.927261
vt 0.506514 0.892705

# vertex normals
vn -0.999967 0.000000 0.008074
vn -0.073533 0.000000 0.997293
vn -0.086727 0.007498 0.996204
vn -0.996497 0.083282 0.007629
vn -0.100782 0.032121 0.994390
vn -0.949228 0.314523 0.006392
vn 0.073533 0.000000 0.997293
vn 0.999967 0.000000 0.008074
vn 0.996497 0.083283 0.007630
vn 0.086727 0.007498 0.996204
vn 0.949228 0.314525 0.006392
vn 0.100782 0.032121 0.994390
vn -0.086725 0.007497 -0.996204
vn -0.996497 0.083282 -0.007629
vn -0.949228 0.314523 -0.006392
vn -0.100779 0.032120 -0.994390
vn -0.073532 0.000000 -0.997293
vn -0.999967 0.000000 -0.008074
vn 0.996497 0.083283 -0.007630
vn 0.086725 0.007498 -0.996204
vn 0.100778 0.032121 -0.994390
vn 0.949228 0.314525 -0.006392
vn 0.999967 0.000000 -0.008074
vn 0.073532 0.000000 -0.997293
vn -0.062016 0.448429 0.891664
vn -0.151653 0.988415 0.006150
vn 0.151653 0.988415 0.006150
vn 0.062015 0.448429 0.891664
vn 0.062014 0.448422 -0.891668
vn 0.151653 0.988415 -0.006150
vn -0.151653 0.988415 -0.006150
vn -0.062015 0.448421 -0.891668

# Mesh
g haie_road
usemtl lambert1
f 4/4/4 1/1/1 2/2/2
f 2/2/2 3/3/3 4/4/4
f 6/6/6 4/4/4 3/3/3
f 3/3/3 5/5/5 6/6/6
f 10/10/10 7/7/7 8/8/8
f 8/8/8 9/9/9 10/10/10
f 12/12/12 10/10/10 9/9/9
f 9/9/9 11/11/11 12/12/12
f 16/16/16 13/13/13 14/14/14
f 14/14/14 15/15/15 16/16/16
f 18/18/18 14/14/14 13/13/13
f 13/13/13 17/17/17 18/18/18
f 22/22/22 19/19/19 20/20/20
f 20/20/20 21/21/21 22/22/22
f 24/24/24 20/20/20 19/19/19
f 19/19/19 23/23/23 24/24/24
f 26/26/26 6/6/6 5/5/5
f 5/5/5 25/25/25 26/26/26
f 28/28/28 12/12/12 11/11/11
f 11/11/11 27/27/27 28/28/28
f 30/30/30 22/22/22 21/21/21
f 21/21/21 29/29/29 30/30/30
f 32/32/32 16/16/16 15/15/15
f 15/15/15 31/31/31 32/32/32
f 27/27/27 26/26/26 25/25/25
f 25/25/25 28/28/28 27/27/27
f 31/31/31 30/30/30 29/29/29
f 29/29/29 32/32/32 31/31/31
f 10/10/10 3/33/3 2/34/2
f 2/34/2 7/7/7 10/10/10
f 31/31/31 26/26/26 27/27/27
f 27/27/27 30/30/30 31/31/31
f 17/36/17 13/35/13 20/20/20
f 20/20/20 24/24/24 17/36/17
f 19/19/19 9/9/9 8/8/8
f 8/8/8 23/23/23 19/19/19
f 4/4/4 14/14/14 18/18/18
f 18/18/18 1/1/1 4/4/4
f 21/21/21 20/20/20 13/35/13
f 13/35/13 16/37/16 21/21/21
f 15/15/15 14/14/14 4/4/4
f 4/4/4 6/6/6 15/15/15
f 3/33/3 10/10/10 12/12/12
f 12/12/12 5/38/5 3/33/3
f 9/9/9 19/19/19 22/22/22
f 22/22/22 11/11/11 9/9/9
f 25/40/25 5/38/5 12/12/12
f 12/12/12 28/39/28 25/40/25
f 27/27/27 11/11/11 22/22/22
f 22/22/22 30/30/30 27/27/27
f 29/42/29 21/21/21 16/37/16
f 16/37/16 32/41/32 29/42/29
f 31/31/31 15/15/15 6/6/6
f 6/6/6 26/26/26 31/31/31
