# This file uses centimeters as units for non-parametric coordinates.

mtllib ESCALIER_LP.mtl
g default
v 89.645508 227.952682 -30.697205
v 91.550888 229.858047 -30.697205
v 133.132950 227.952652 -30.697205
v 131.227570 229.858047 -30.697205
v 89.645508 219.059586 -30.697205
v 91.550888 217.154327 -30.697205
v 131.227570 217.154327 -30.697205
v 133.132950 219.059586 -30.697205
v 92.224457 228.231888 81.868385
v 91.550888 229.858047 80.242218
v 130.554001 228.231888 81.868385
v 131.227570 229.858047 80.242218
v 91.271667 227.279083 81.868385
v 89.645508 227.952652 80.242218
v 131.506805 227.279083 81.868385
v 133.132950 227.952652 80.242218
v 92.224426 218.780472 81.868385
v 91.550888 217.154327 80.242218
v 130.554016 218.780472 81.868385
v 131.227570 217.154327 80.242218
v 91.271667 219.733170 81.868385
v 89.645508 219.059586 80.242218
v 131.506805 219.733170 81.868385
v 133.132950 219.059586 80.242218
v 52.208763 189.823303 -30.697189
v 54.114132 191.728668 -30.697189
v 95.696198 189.823273 -30.697189
v 93.790817 191.728668 -30.697189
v 52.208763 180.930206 -30.697189
v 54.114132 179.024948 -30.697189
v 93.790817 179.024948 -30.697189
v 95.696198 180.930206 -30.697189
v 54.787704 190.102509 81.868385
v 54.114132 191.728668 80.242233
v 93.117249 190.102509 81.868385
v 93.790817 191.728668 80.242233
v 53.834915 189.149704 81.868385
v 52.208763 189.823273 80.242233
v 94.070053 189.149704 81.868385
v 95.696198 189.823273 80.242233
v 54.787674 180.651093 81.868385
v 54.114132 179.024948 80.242233
v 93.117264 180.651093 81.868385
v 93.790817 179.024948 80.242233
v 53.834915 181.603790 81.868385
v 52.208763 180.930206 80.242233
v 94.070053 181.603790 81.868385
v 95.696198 180.930206 80.242233
v 14.772013 151.693939 -30.697189
v 16.677380 153.599304 -30.697189
v 58.259441 151.693909 -30.697189
v 56.354065 153.599304 -30.697189
v 14.772013 142.800842 -30.697189
v 16.677380 140.895584 -30.697189
v 56.354065 140.895584 -30.697189
v 58.259441 142.800842 -30.697189
v 17.350950 151.973145 81.868385
v 16.677380 153.599304 80.242233
v 55.680492 151.973145 81.868385
v 56.354065 153.599304 80.242233
v 16.398163 151.020340 81.868385
v 14.772013 151.693909 80.242233
v 56.633301 151.020340 81.868385
v 58.259441 151.693909 80.242233
v 17.350920 142.521729 81.868385
v 16.677380 140.895584 80.242233
v 55.680511 142.521729 81.868385
v 56.354065 140.895584 80.242233
v 16.398163 143.474426 81.868385
v 14.772013 142.800842 80.242233
v 56.633301 143.474426 81.868385
v 58.259441 142.800842 80.242233
v 127.082253 266.082123 -30.697199
v 128.987625 267.987488 -30.697199
v 170.569687 266.082092 -30.697199
v 168.664307 267.987488 -30.697199
v 127.082253 257.189026 -30.697199
v 128.987625 255.283783 -30.697199
v 168.664307 255.283783 -30.697199
v 170.569687 257.189026 -30.697199
v 129.661194 266.361328 81.868378
v 128.987625 267.987488 80.242226
v 167.990738 266.361328 81.868378
v 168.664307 267.987488 80.242226
v 128.708405 265.408539 81.868378
v 127.082253 266.082092 80.242226
v 168.943542 265.408539 81.868378
v 170.569687 266.082092 80.242226
v 129.661163 256.909912 81.868378
v 128.987625 255.283783 80.242226
v 167.990753 256.909912 81.868378
v 168.664307 255.283783 80.242226
v 128.708405 257.862610 81.868378
v 127.082253 257.189026 80.242226
v 168.943542 257.862610 81.868378
v 170.569687 257.189026 80.242226
v -22.664740 113.564568 -30.697189
v -20.759373 115.469940 -30.697189
v 20.822689 113.564545 -30.697189
v 18.917311 115.469940 -30.697189
v -22.664740 104.671471 -30.697189
v -20.759373 102.766228 -30.697189
v 18.917311 102.766228 -30.697189
v 20.822689 104.671471 -30.697189
v -20.085802 113.843781 81.868385
v -20.759373 115.469940 80.242233
v 18.243740 113.843781 81.868385
v 18.917311 115.469940 80.242233
v -21.038589 112.890984 81.868385
v -22.664740 113.564545 80.242233
v 19.196548 112.890984 81.868385
v 20.822689 113.564545 80.242233
v -20.085833 104.392365 81.868385
v -20.759373 102.766228 80.242233
v 18.243761 104.392365 81.868385
v 18.917311 102.766228 80.242233
v -21.038589 105.345055 81.868385
v -22.664740 104.671471 80.242233
v 19.196548 105.345055 81.868385
v 20.822689 104.671471 80.242233
v -60.101494 75.435196 -30.697189
v -58.196125 77.340569 -30.697189
v -16.614063 75.435173 -30.697189
v -18.519442 77.340569 -30.697189
v -60.101494 66.542099 -30.697189
v -58.196125 64.636856 -30.697189
v -18.519442 64.636856 -30.697189
v -16.614063 66.542099 -30.697189
v -57.522552 75.714409 81.868385
v -58.196125 77.340569 80.242233
v -19.193012 75.714409 81.868385
v -18.519442 77.340569 80.242233
v -58.475342 74.761612 81.868385
v -60.101494 75.435173 80.242233
v -18.240204 74.761612 81.868385
v -16.614063 75.435173 80.242233
v -57.522583 66.262985 81.868385
v -58.196125 64.636856 80.242233
v -19.192991 66.262985 81.868385
v -18.519442 64.636856 80.242233
v -58.475342 67.215683 81.868385
v -60.101494 66.542099 80.242233
v -18.240204 67.215683 81.868385
v -16.614063 66.542099 80.242233
v -97.538246 37.305828 -30.697189
v -95.632874 39.211197 -30.697189
v -54.050816 37.305805 -30.697189
v -55.956192 39.211197 -30.697189
v -97.538246 28.412733 -30.697189
v -95.632874 26.507484 -30.697189
v -55.956192 26.507484 -30.697189
v -54.050816 28.412733 -30.697189
v -94.959305 37.585037 81.868385
v -95.632874 39.211197 80.242233
v -56.629765 37.585037 81.868385
v -55.956192 39.211197 80.242233
v -95.912094 36.632244 81.868385
v -97.538246 37.305805 80.242233
v -55.676956 36.632244 81.868385
v -54.050816 37.305805 80.242233
v -94.959335 28.133621 81.868385
v -95.632874 26.507484 80.242233
v -56.629745 28.133621 81.868385
v -55.956192 26.507484 80.242233
v -95.912094 29.086319 81.868385
v -97.538246 28.412733 80.242233
v -55.676956 29.086319 81.868385
v -54.050816 28.412733 80.242233
vt 0.836530 0.832318
vt 0.583188 0.780876
vt 0.601918 0.780875
vt 0.847422 0.843402
vt 0.389404 0.832499
vt 0.307403 0.780890
vt 0.378420 0.843587
vt 0.288673 0.780891
vt 0.663732 0.780872
vt 0.847922 0.931365
vt 0.378774 0.931608
vt 0.226859 0.780894
vt 0.836951 0.942455
vt 0.682461 0.780871
vt 0.958246 0.780856
vt 0.389591 0.942736
vt 0.583148 0.009757
vt 0.307363 0.009772
vt 0.682421 0.009752
vt 0.958206 0.009738
vt 0.226819 0.009776
vt 0.288633 0.009773
vt 0.663692 0.009753
vt 0.601878 0.009757
vt 0.208090 0.009777
vt 0.379066 0.969148
vt 0.208130 0.780895
vt 0.352379 0.942764
vt 0.873471 0.942612
vt 0.847224 0.969131
vt 0.352884 0.832305
vt 0.873789 0.832167
vt 0.379162 0.805820
vt 0.847030 0.805900
vt 0.836530 0.832318
vt 0.847030 0.805900
vt 0.873789 0.832167
vt 0.847422 0.843402
vt 0.389404 0.832499
vt 0.379162 0.805820
vt 0.378420 0.843587
vt 0.352884 0.832305
vt 0.873471 0.942612
vt 0.847922 0.931365
vt 0.378774 0.931608
vt 0.352379 0.942764
vt 0.836951 0.942455
vt 0.847224 0.969131
vt 0.379066 0.969148
vt 0.389591 0.942736
vt 0.583148 0.009757
vt 0.583188 0.780876
vt 0.307403 0.780890
vt 0.307363 0.009772
vt 0.682461 0.780871
vt 0.682421 0.009752
vt 0.958206 0.009738
vt 0.958246 0.780856
vt 0.226859 0.780894
vt 0.226819 0.009776
vt 0.288633 0.009773
vt 0.288673 0.780891
vt 0.663692 0.009753
vt 0.663732 0.780872
vt 0.601918 0.780875
vt 0.601878 0.009757
vt 0.208130 0.780895
vt 0.208090 0.009777
vt 0.836530 0.832318
vt 0.847030 0.805900
vt 0.873789 0.832167
vt 0.847422 0.843402
vt 0.389404 0.832499
vt 0.379162 0.805820
vt 0.378420 0.843587
vt 0.352884 0.832305
vt 0.873471 0.942612
vt 0.847922 0.931365
vt 0.378774 0.931608
vt 0.352379 0.942764
vt 0.836951 0.942455
vt 0.847224 0.969131
vt 0.379066 0.969148
vt 0.389591 0.942736
vt 0.583148 0.009757
vt 0.583188 0.780876
vt 0.307403 0.780890
vt 0.307363 0.009772
vt 0.682461 0.780871
vt 0.682421 0.009752
vt 0.958206 0.009738
vt 0.958246 0.780856
vt 0.226859 0.780894
vt 0.226819 0.009776
vt 0.288633 0.009773
vt 0.288673 0.780891
vt 0.663692 0.009753
vt 0.663732 0.780872
vt 0.601918 0.780875
vt 0.601878 0.009757
vt 0.208130 0.780895
vt 0.208090 0.009777
vt 0.836530 0.832318
vt 0.847030 0.805900
vt 0.873789 0.832167
vt 0.847422 0.843402
vt 0.389404 0.832499
vt 0.379162 0.805820
vt 0.378420 0.843587
vt 0.352884 0.832305
vt 0.873471 0.942612
vt 0.847922 0.931365
vt 0.378774 0.931608
vt 0.352379 0.942764
vt 0.836951 0.942455
vt 0.847224 0.969131
vt 0.379066 0.969148
vt 0.389591 0.942736
vt 0.583148 0.009757
vt 0.583188 0.780876
vt 0.307403 0.780890
vt 0.307363 0.009772
vt 0.682461 0.780871
vt 0.682421 0.009752
vt 0.958206 0.009738
vt 0.958246 0.780856
vt 0.226859 0.780894
vt 0.226819 0.009776
vt 0.288633 0.009773
vt 0.288673 0.780891
vt 0.663692 0.009753
vt 0.663732 0.780872
vt 0.601918 0.780875
vt 0.601878 0.009757
vt 0.208130 0.780895
vt 0.208090 0.009777
vt 0.836530 0.832318
vt 0.847030 0.805900
vt 0.873789 0.832167
vt 0.847422 0.843402
vt 0.389404 0.832499
vt 0.379162 0.805820
vt 0.378420 0.843587
vt 0.352884 0.832305
vt 0.873471 0.942612
vt 0.847922 0.931365
vt 0.378774 0.931608
vt 0.352379 0.942764
vt 0.836951 0.942455
vt 0.847224 0.969131
vt 0.379066 0.969148
vt 0.389591 0.942736
vt 0.583148 0.009757
vt 0.583188 0.780876
vt 0.307403 0.780890
vt 0.307363 0.009772
vt 0.682461 0.780871
vt 0.682421 0.009752
vt 0.958206 0.009738
vt 0.958246 0.780856
vt 0.226859 0.780894
vt 0.226819 0.009776
vt 0.288633 0.009773
vt 0.288673 0.780891
vt 0.663692 0.009753
vt 0.663732 0.780872
vt 0.601918 0.780875
vt 0.601878 0.009757
vt 0.208130 0.780895
vt 0.208090 0.009777
vt 0.836530 0.832318
vt 0.847030 0.805900
vt 0.873789 0.832167
vt 0.847422 0.843402
vt 0.389404 0.832499
vt 0.379162 0.805820
vt 0.378420 0.843587
vt 0.352884 0.832305
vt 0.873471 0.942612
vt 0.847922 0.931365
vt 0.378774 0.931608
vt 0.352379 0.942764
vt 0.836951 0.942455
vt 0.847224 0.969131
vt 0.379066 0.969148
vt 0.389591 0.942736
vt 0.583148 0.009757
vt 0.583188 0.780876
vt 0.307403 0.780890
vt 0.307363 0.009772
vt 0.682461 0.780871
vt 0.682421 0.009752
vt 0.958206 0.009738
vt 0.958246 0.780856
vt 0.226859 0.780894
vt 0.226819 0.009776
vt 0.288633 0.009773
vt 0.288673 0.780891
vt 0.663692 0.009753
vt 0.663732 0.780872
vt 0.601918 0.780875
vt 0.601878 0.009757
vt 0.208130 0.780895
vt 0.208090 0.009777
vt 0.836530 0.832318
vt 0.847030 0.805900
vt 0.873789 0.832167
vt 0.847422 0.843402
vt 0.389404 0.832499
vt 0.379162 0.805820
vt 0.378420 0.843587
vt 0.352884 0.832305
vt 0.873471 0.942612
vt 0.847922 0.931365
vt 0.378774 0.931608
vt 0.352379 0.942764
vt 0.836951 0.942455
vt 0.847224 0.969131
vt 0.379066 0.969148
vt 0.389591 0.942736
vt 0.583148 0.009757
vt 0.583188 0.780876
vt 0.307403 0.780890
vt 0.307363 0.009772
vt 0.682461 0.780871
vt 0.682421 0.009752
vt 0.958206 0.009738
vt 0.958246 0.780856
vt 0.226859 0.780894
vt 0.226819 0.009776
vt 0.288633 0.009773
vt 0.288673 0.780891
vt 0.663692 0.009753
vt 0.663732 0.780872
vt 0.601918 0.780875
vt 0.601878 0.009757
vt 0.208130 0.780895
vt 0.208090 0.009777
vn -0.004216 0.119287 0.992851
vn -0.045651 0.998889 0.011689
vn -0.984777 0.173467 0.011087
vn -0.031542 0.004672 0.999492
vn 0.004216 0.119287 0.992851
vn 0.045651 0.998889 0.011689
vn 0.031542 0.004672 0.999492
vn 0.984777 0.173467 0.011087
vn -0.984777 -0.173469 0.011087
vn -0.031542 -0.004672 0.999492
vn 0.031542 -0.004672 0.999492
vn 0.984777 -0.173469 0.011087
vn -0.004216 -0.119285 0.992851
vn -0.045648 -0.998889 0.011689
vn 0.045648 -0.998889 0.011689
vn 0.004216 -0.119285 0.992851
vn -0.045774 0.998952 0.000000
vn 0.045775 0.998952 0.000000
vn -0.045771 -0.998952 0.000000
vn 0.045771 -0.998952 0.000000
vn 0.984787 -0.173767 0.000000
vn 0.984787 0.173765 0.000000
vn -0.984787 -0.173767 0.000000
vn -0.984787 0.173765 0.000000
vn -0.004216 0.119287 0.992851
vn -0.045651 0.998889 0.011689
vn -0.984777 0.173466 0.011087
vn -0.031542 0.004672 0.999492
vn 0.004216 0.119286 0.992851
vn 0.045651 0.998889 0.011689
vn 0.031542 0.004672 0.999492
vn 0.984777 0.173467 0.011087
vn -0.984777 -0.173468 0.011087
vn -0.031542 -0.004672 0.999492
vn 0.031542 -0.004672 0.999492
vn 0.984777 -0.173469 0.011087
vn -0.004216 -0.119285 0.992851
vn -0.045648 -0.998889 0.011689
vn 0.045648 -0.998889 0.011689
vn 0.004216 -0.119284 0.992851
vn -0.045774 0.998952 0.000000
vn 0.045775 0.998952 0.000000
vn -0.045771 -0.998952 0.000000
vn 0.045771 -0.998952 0.000000
vn 0.984787 -0.173767 0.000000
vn 0.984787 0.173765 0.000000
vn -0.984787 -0.173766 0.000000
vn -0.984787 0.173764 0.000000
vn -0.004216 0.119287 0.992851
vn -0.045651 0.998889 0.011689
vn -0.984777 0.173466 0.011087
vn -0.031542 0.004672 0.999492
vn 0.004216 0.119286 0.992851
vn 0.045651 0.998889 0.011689
vn 0.031542 0.004672 0.999492
vn 0.984777 0.173467 0.011087
vn -0.984777 -0.173468 0.011087
vn -0.031542 -0.004672 0.999492
vn 0.031542 -0.004672 0.999492
vn 0.984777 -0.173469 0.011087
vn -0.004216 -0.119285 0.992851
vn -0.045648 -0.998889 0.011689
vn 0.045648 -0.998889 0.011689
vn 0.004216 -0.119284 0.992851
vn -0.045774 0.998952 0.000000
vn 0.045775 0.998952 0.000000
vn -0.045771 -0.998952 0.000000
vn 0.045771 -0.998952 0.000000
vn 0.984787 -0.173767 0.000000
vn 0.984787 0.173765 0.000000
vn -0.984787 -0.173766 0.000000
vn -0.984787 0.173764 0.000000
vn -0.004216 0.119286 0.992851
vn -0.045651 0.998889 0.011689
vn -0.984777 0.173466 0.011087
vn -0.031542 0.004672 0.999492
vn 0.004216 0.119286 0.992851
vn 0.045651 0.998889 0.011689
vn 0.031542 0.004672 0.999492
vn 0.984777 0.173466 0.011087
vn -0.984777 -0.173469 0.011087
vn -0.031542 -0.004672 0.999492
vn 0.031542 -0.004672 0.999492
vn 0.984777 -0.173469 0.011087
vn -0.004216 -0.119285 0.992851
vn -0.045647 -0.998889 0.011689
vn 0.045647 -0.998889 0.011689
vn 0.004216 -0.119284 0.992851
vn -0.045774 0.998952 0.000000
vn 0.045775 0.998952 0.000000
vn -0.045771 -0.998952 0.000000
vn 0.045771 -0.998952 0.000000
vn 0.984787 -0.173767 0.000000
vn 0.984787 0.173764 0.000000
vn -0.984787 -0.173766 0.000000
vn -0.984787 0.173764 0.000000
vn -0.004216 0.119287 0.992851
vn -0.045651 0.998889 0.011689
vn -0.984778 0.173466 0.011087
vn -0.031542 0.004672 0.999492
vn 0.004216 0.119286 0.992851
vn 0.045651 0.998889 0.011689
vn 0.031542 0.004672 0.999492
vn 0.984777 0.173467 0.011087
vn -0.984777 -0.173468 0.011087
vn -0.031542 -0.004672 0.999492
vn 0.031542 -0.004672 0.999492
vn 0.984777 -0.173469 0.011087
vn -0.004216 -0.119284 0.992851
vn -0.045647 -0.998889 0.011689
vn 0.045647 -0.998889 0.011689
vn 0.004216 -0.119284 0.992851
vn -0.045774 0.998952 0.000000
vn 0.045775 0.998952 0.000000
vn -0.045771 -0.998952 0.000000
vn 0.045771 -0.998952 0.000000
vn 0.984787 -0.173767 0.000000
vn 0.984787 0.173765 0.000000
vn -0.984787 -0.173766 0.000000
vn -0.984787 0.173764 0.000000
vn -0.004216 0.119286 0.992851
vn -0.045651 0.998889 0.011689
vn -0.984778 0.173466 0.011087
vn -0.031542 0.004672 0.999492
vn 0.004216 0.119286 0.992851
vn 0.045651 0.998889 0.011689
vn 0.031542 0.004672 0.999492
vn 0.984777 0.173467 0.011087
vn -0.984777 -0.173468 0.011087
vn -0.031542 -0.004672 0.999492
vn 0.031542 -0.004672 0.999492
vn 0.984777 -0.173469 0.011087
vn -0.004216 -0.119285 0.992851
vn -0.045647 -0.998889 0.011689
vn 0.045647 -0.998889 0.011689
vn 0.004216 -0.119284 0.992851
vn -0.045774 0.998952 0.000000
vn 0.045775 0.998952 0.000000
vn -0.045771 -0.998952 0.000000
vn 0.045771 -0.998952 0.000000
vn 0.984787 -0.173767 0.000000
vn 0.984787 0.173765 0.000000
vn -0.984787 -0.173766 0.000000
vn -0.984787 0.173764 0.000000
vn -0.004216 0.119286 0.992851
vn -0.045651 0.998889 0.011689
vn -0.984777 0.173466 0.011087
vn -0.031542 0.004672 0.999492
vn 0.004216 0.119286 0.992851
vn 0.045651 0.998889 0.011689
vn 0.031542 0.004672 0.999492
vn 0.984777 0.173467 0.011087
vn -0.984777 -0.173468 0.011087
vn -0.031542 -0.004672 0.999492
vn 0.031542 -0.004672 0.999492
vn 0.984777 -0.173469 0.011087
vn -0.004216 -0.119285 0.992851
vn -0.045647 -0.998889 0.011689
vn 0.045647 -0.998889 0.011689
vn 0.004216 -0.119284 0.992851
vn -0.045774 0.998952 0.000000
vn 0.045774 0.998952 0.000000
vn -0.045771 -0.998952 0.000000
vn 0.045771 -0.998952 0.000000
vn 0.984787 -0.173767 0.000000
vn 0.984787 0.173765 0.000000
vn -0.984787 -0.173766 0.000000
vn -0.984787 0.173764 0.000000
s 1
g MARCHES_LP ESCALIER_LP
usemtl initialShadingGroup
f 9/1/1 10/34/2 14/32/3 13/4/4
f 10/34/2 9/1/1 11/5/5 12/33/6
f 12/33/6 11/5/5 15/7/7 16/31/8
f 13/4/4 14/32/3 22/29/9 21/10/10
f 16/31/8 15/7/7 23/11/11 24/28/12
f 17/13/13 18/30/14 20/26/15 19/16/16
f 18/30/14 17/13/13 21/10/10 22/29/9
f 19/16/16 20/26/15 24/28/12 23/11/11
f 2/17/17 10/2/2 12/6/6 4/18/18
f 18/14/14 6/19/19 7/20/20 20/15/15
f 24/12/12 8/21/21 3/22/22 16/8/8
f 5/23/23 22/9/9 14/3/3 1/24/24
f 21/10/10 17/13/13 19/16/16 23/11/11 15/7/7 11/5/5 9/1/1 13/4/4
f 14/3/3 10/2/2 2/17/17 1/24/24
f 12/6/6 16/8/8 3/22/22 4/18/18
f 18/14/14 22/9/9 5/23/23 6/19/19
f 24/12/12 20/27/15 7/25/20 8/21/21
s 2
f 33/35/25 34/36/26 38/37/27 37/38/28
f 34/36/26 33/35/25 35/39/29 36/40/30
f 36/40/30 35/39/29 39/41/31 40/42/32
f 37/38/28 38/37/27 46/43/33 45/44/34
f 40/42/32 39/41/31 47/45/35 48/46/36
f 41/47/37 42/48/38 44/49/39 43/50/40
f 42/48/38 41/47/37 45/44/34 46/43/33
f 43/50/40 44/49/39 48/46/36 47/45/35
f 26/51/41 34/52/26 36/53/30 28/54/42
f 42/55/38 30/56/43 31/57/44 44/58/39
f 48/59/36 32/60/45 27/61/46 40/62/32
f 29/63/47 46/64/33 38/65/27 25/66/48
f 45/44/34 41/47/37 43/50/40 47/45/35 39/41/31 35/39/29 33/35/25 37/38/28
f 38/65/27 34/52/26 26/51/41 25/66/48
f 36/53/30 40/62/32 27/61/46 28/54/42
f 42/55/38 46/64/33 29/63/47 30/56/43
f 48/59/36 44/67/39 31/68/44 32/60/45
s 3
f 57/69/49 58/70/50 62/71/51 61/72/52
f 58/70/50 57/69/49 59/73/53 60/74/54
f 60/74/54 59/73/53 63/75/55 64/76/56
f 61/72/52 62/71/51 70/77/57 69/78/58
f 64/76/56 63/75/55 71/79/59 72/80/60
f 65/81/61 66/82/62 68/83/63 67/84/64
f 66/82/62 65/81/61 69/78/58 70/77/57
f 67/84/64 68/83/63 72/80/60 71/79/59
f 50/85/65 58/86/50 60/87/54 52/88/66
f 66/89/62 54/90/67 55/91/68 68/92/63
f 72/93/60 56/94/69 51/95/70 64/96/56
f 53/97/71 70/98/57 62/99/51 49/100/72
f 69/78/58 65/81/61 67/84/64 71/79/59 63/75/55 59/73/53 57/69/49 61/72/52
f 62/99/51 58/86/50 50/85/65 49/100/72
f 60/87/54 64/96/56 51/95/70 52/88/66
f 66/89/62 70/98/57 53/97/71 54/90/67
f 72/93/60 68/101/63 55/102/68 56/94/69
s 4
f 81/103/73 82/104/74 86/105/75 85/106/76
f 82/104/74 81/103/73 83/107/77 84/108/78
f 84/108/78 83/107/77 87/109/79 88/110/80
f 85/106/76 86/105/75 94/111/81 93/112/82
f 88/110/80 87/109/79 95/113/83 96/114/84
f 89/115/85 90/116/86 92/117/87 91/118/88
f 90/116/86 89/115/85 93/112/82 94/111/81
f 91/118/88 92/117/87 96/114/84 95/113/83
f 74/119/89 82/120/74 84/121/78 76/122/90
f 90/123/86 78/124/91 79/125/92 92/126/87
f 96/127/84 80/128/93 75/129/94 88/130/80
f 77/131/95 94/132/81 86/133/75 73/134/96
f 93/112/82 89/115/85 91/118/88 95/113/83 87/109/79 83/107/77 81/103/73 85/106/76
f 86/133/75 82/120/74 74/119/89 73/134/96
f 84/121/78 88/130/80 75/129/94 76/122/90
f 90/123/86 94/132/81 77/131/95 78/124/91
f 96/127/84 92/135/87 79/136/92 80/128/93
s 5
f 105/137/97 106/138/98 110/139/99 109/140/100
f 106/138/98 105/137/97 107/141/101 108/142/102
f 108/142/102 107/141/101 111/143/103 112/144/104
f 109/140/100 110/139/99 118/145/105 117/146/106
f 112/144/104 111/143/103 119/147/107 120/148/108
f 113/149/109 114/150/110 116/151/111 115/152/112
f 114/150/110 113/149/109 117/146/106 118/145/105
f 115/152/112 116/151/111 120/148/108 119/147/107
f 98/153/113 106/154/98 108/155/102 100/156/114
f 114/157/110 102/158/115 103/159/116 116/160/111
f 120/161/108 104/162/117 99/163/118 112/164/104
f 101/165/119 118/166/105 110/167/99 97/168/120
f 117/146/106 113/149/109 115/152/112 119/147/107 111/143/103 107/141/101 105/137/97 109/140/100
f 110/167/99 106/154/98 98/153/113 97/168/120
f 108/155/102 112/164/104 99/163/118 100/156/114
f 114/157/110 118/166/105 101/165/119 102/158/115
f 120/161/108 116/169/111 103/170/116 104/162/117
s 6
f 129/171/121 130/172/122 134/173/123 133/174/124
f 130/172/122 129/171/121 131/175/125 132/176/126
f 132/176/126 131/175/125 135/177/127 136/178/128
f 133/174/124 134/173/123 142/179/129 141/180/130
f 136/178/128 135/177/127 143/181/131 144/182/132
f 137/183/133 138/184/134 140/185/135 139/186/136
f 138/184/134 137/183/133 141/180/130 142/179/129
f 139/186/136 140/185/135 144/182/132 143/181/131
f 122/187/137 130/188/122 132/189/126 124/190/138
f 138/191/134 126/192/139 127/193/140 140/194/135
f 144/195/132 128/196/141 123/197/142 136/198/128
f 125/199/143 142/200/129 134/201/123 121/202/144
f 141/180/130 137/183/133 139/186/136 143/181/131 135/177/127 131/175/125 129/171/121 133/174/124
f 134/201/123 130/188/122 122/187/137 121/202/144
f 132/189/126 136/198/128 123/197/142 124/190/138
f 138/191/134 142/200/129 125/199/143 126/192/139
f 144/195/132 140/203/135 127/204/140 128/196/141
s 7
f 153/205/145 154/206/146 158/207/147 157/208/148
f 154/206/146 153/205/145 155/209/149 156/210/150
f 156/210/150 155/209/149 159/211/151 160/212/152
f 157/208/148 158/207/147 166/213/153 165/214/154
f 160/212/152 159/211/151 167/215/155 168/216/156
f 161/217/157 162/218/158 164/219/159 163/220/160
f 162/218/158 161/217/157 165/214/154 166/213/153
f 163/220/160 164/219/159 168/216/156 167/215/155
f 146/221/161 154/222/146 156/223/150 148/224/162
f 162/225/158 150/226/163 151/227/164 164/228/159
f 168/229/156 152/230/165 147/231/166 160/232/152
f 149/233/167 166/234/153 158/235/147 145/236/168
f 165/214/154 161/217/157 163/220/160 167/215/155 159/211/151 155/209/149 153/205/145 157/208/148
f 158/235/147 154/222/146 146/221/161 145/236/168
f 156/223/150 160/232/152 147/231/166 148/224/162
f 162/225/158 166/234/153 149/233/167 150/226/163
f 168/229/156 164/237/159 151/238/164 152/230/165
g default
v -8.317150 -280.382858 104.427617
v 5.079044 -280.382858 104.427617
v -8.317149 222.959756 104.427617
v 5.079048 213.527150 104.427617
v -8.317149 222.959756 95.528565
v 5.079046 213.527150 95.528565
v -8.317150 -280.382858 95.528565
v 5.079044 -280.382858 95.528565
v 186.168707 417.484870 104.427617
v 195.641258 408.012235 104.427617
v 195.641258 408.012235 95.528565
v 186.168707 417.484870 95.528565
vt 0.066256 0.004883
vt 0.092610 0.004883
vt 0.095245 0.010475
vt 0.162027 0.004916
vt 0.160984 0.546070
vt 0.099615 0.546125
vt 0.117122 0.545982
vt 0.143476 0.546036
vt 0.144520 0.004883
vt 0.112752 0.010332
vt 0.022394 0.004883
vt 0.048749 0.004883
vt 0.092606 0.976560
vt 0.187338 0.546118
vt 0.004887 0.004883
vt 0.004883 0.976560
vt 0.193774 0.010488
vt 0.022390 0.976560
vt 0.066252 0.995117
vt 0.048745 0.995117
vn -0.556949 0.000000 0.830547
vn 0.549686 -0.000000 0.835371
vn 0.382692 -0.105937 0.917782
vn -0.665195 0.185380 0.723291
vn -0.665195 0.185380 -0.723291
vn 0.382692 -0.105937 -0.917782
vn 0.549686 -0.000000 -0.835371
vn -0.556949 0.000000 -0.830547
vn 0.709788 -0.695471 0.111899
vn -0.211315 0.211272 0.954311
vn 0.709788 -0.695471 -0.111899
vn -0.211315 0.211272 -0.954311
s 1
g ESCALIER_LP REMBARDE_LP
usemtl initialShadingGroup
f 169/239/169 170/240/170 172/251/171 171/257/172
f 173/258/173 174/256/174 176/249/175 175/250/176
f 170/253/170 176/249/175 174/256/174 172/254/171
f 175/250/176 169/239/169 171/257/172 173/258/173
f 171/242/172 172/255/171 178/252/177 177/243/178
f 172/241/171 174/248/174 179/245/179 178/244/177
f 174/248/174 173/247/173 180/246/180 179/245/179
f 173/247/173 171/242/172 177/243/178 180/246/180
