# This file uses centimeters as units for non-parametric coordinates.

mtllib ESCALIER2_LP.mtl
g default
v 140.325638 -115.696442 157.047165
v 140.325638 -113.791061 155.141785
v 142.231018 -113.791061 157.047165
v 98.743576 -113.791061 157.047165
v 100.648956 -113.791061 155.141785
v 100.648956 -115.696442 157.047165
v 142.231018 -104.898026 157.047165
v 140.325638 -104.898026 155.141785
v 140.325638 -102.992653 157.047165
v 100.648956 -102.992653 157.047165
v 100.648956 -104.898026 155.141785
v 98.743576 -104.898026 157.047165
v 142.231018 -104.898026 283.785919
v 140.325638 -102.992653 283.785919
v 100.648956 -102.992653 283.785919
v 98.743576 -104.898026 283.785919
v 140.325638 -115.696442 283.785919
v 142.231018 -113.791061 283.785919
v 98.743576 -113.791061 283.785919
v 100.648956 -115.696442 283.785919
v 65.452141 -39.437702 157.047165
v 65.452141 -37.532326 155.141785
v 67.357521 -37.532326 157.047165
v 23.870081 -37.532326 157.047165
v 25.775457 -37.532326 155.141785
v 25.775457 -39.437702 157.047165
v 67.357521 -28.639292 157.047165
v 65.452141 -28.639292 155.141785
v 65.452141 -26.733915 157.047165
v 25.775457 -26.733915 157.047165
v 25.775457 -28.639292 155.141785
v 23.870081 -28.639292 157.047165
v 67.357521 -28.639292 283.785919
v 65.452141 -26.733915 283.785919
v 25.775457 -26.733915 283.785919
v 23.870081 -28.639292 283.785919
v 65.452141 -39.437702 283.785919
v 67.357521 -37.532326 283.785919
v 23.870081 -37.532326 283.785919
v 25.775457 -39.437702 283.785919
v 102.888893 -77.567062 157.047165
v 102.888893 -75.661690 155.141785
v 104.794273 -75.661690 157.047165
v 61.306831 -75.661690 157.047165
v 63.212212 -75.661690 155.141785
v 63.212212 -77.567062 157.047165
v 104.794273 -66.768654 157.047165
v 102.888893 -66.768654 155.141785
v 102.888893 -64.863281 157.047165
v 63.212212 -64.863281 157.047165
v 63.212212 -66.768654 155.141785
v 61.306831 -66.768654 157.047165
v 104.794273 -66.768654 283.785919
v 102.888893 -64.863281 283.785919
v 63.212212 -64.863281 283.785919
v 61.306831 -66.768654 283.785919
v 102.888893 -77.567062 283.785919
v 104.794273 -75.661690 283.785919
v 61.306831 -75.661690 283.785919
v 63.212212 -77.567062 283.785919
vt 0.890149 0.004902
vt 0.890149 0.023724
vt 0.004899 0.023705
vt 0.004899 0.004883
vt 0.976335 0.023353
vt 0.995117 0.021150
vt 0.995113 0.302335
vt 0.976597 0.300049
vt 0.978545 0.005391
vt 0.914286 0.023532
vt 0.912054 0.004883
vt 0.890139 0.462735
vt 0.890139 0.481556
vt 0.004889 0.481537
vt 0.004889 0.462716
vt 0.978829 0.318698
vt 0.912338 0.318190
vt 0.914548 0.300228
vt 0.890147 0.085840
vt 0.890147 0.104662
vt 0.004897 0.104642
vt 0.004897 0.085821
vt 0.895769 0.021246
vt 0.895766 0.302431
vt 0.890141 0.381797
vt 0.890140 0.400618
vt 0.004891 0.400599
vt 0.004891 0.381778
vt 0.890133 0.758691
vt 0.004883 0.758672
vt 0.890149 0.004902
vt 0.890149 0.023724
vt 0.004899 0.023705
vt 0.004899 0.004883
vt 0.976335 0.023353
vt 0.995117 0.021150
vt 0.995113 0.302335
vt 0.976597 0.300049
vt 0.978545 0.005391
vt 0.914286 0.023532
vt 0.912054 0.004883
vt 0.890139 0.462735
vt 0.890139 0.481556
vt 0.004889 0.481537
vt 0.004889 0.462716
vt 0.978829 0.318698
vt 0.912338 0.318190
vt 0.914548 0.300228
vt 0.890147 0.085840
vt 0.890147 0.104662
vt 0.004897 0.104642
vt 0.004897 0.085821
vt 0.895769 0.021246
vt 0.895766 0.302431
vt 0.890141 0.381797
vt 0.890140 0.400618
vt 0.004891 0.400599
vt 0.004891 0.381778
vt 0.890133 0.758691
vt 0.004883 0.758672
vt 0.890149 0.004902
vt 0.890149 0.023724
vt 0.004899 0.023705
vt 0.004899 0.004883
vt 0.976335 0.023353
vt 0.995117 0.021150
vt 0.995113 0.302335
vt 0.976597 0.300049
vt 0.978545 0.005391
vt 0.914286 0.023532
vt 0.912054 0.004883
vt 0.890139 0.462735
vt 0.890139 0.481556
vt 0.004889 0.481537
vt 0.004889 0.462716
vt 0.978829 0.318698
vt 0.912338 0.318190
vt 0.914548 0.300228
vt 0.890147 0.085840
vt 0.890147 0.104662
vt 0.004897 0.104642
vt 0.004897 0.085821
vt 0.895769 0.021246
vt 0.895766 0.302431
vt 0.890141 0.381797
vt 0.890140 0.400618
vt 0.004891 0.400599
vt 0.004891 0.381778
vt 0.890133 0.758691
vt 0.004883 0.758672
vn 0.045339 -0.998869 -0.014349
vn 0.984947 -0.172377 -0.012895
vn 0.984787 -0.173765 0.000000
vn 0.045774 -0.998952 0.000000
vn 0.040031 -0.169362 -0.984741
vn -0.045339 -0.998869 -0.014349
vn -0.040031 -0.169362 -0.984741
vn 0.040031 0.169363 -0.984740
vn 0.984947 0.172377 -0.012895
vn -0.984946 -0.172378 -0.012895
vn -0.045774 -0.998952 0.000000
vn -0.984787 -0.173766 0.000000
vn -0.984946 0.172378 -0.012895
vn -0.040031 0.169363 -0.984740
vn 0.045339 0.998869 -0.014349
vn 0.045774 0.998952 0.000000
vn 0.984787 0.173765 0.000000
vn -0.045339 0.998869 -0.014349
vn -0.984787 0.173766 0.000000
vn -0.045774 0.998952 0.000000
vn 0.045339 -0.998869 -0.014349
vn 0.984947 -0.172378 -0.012895
vn 0.984787 -0.173766 0.000000
vn 0.045774 -0.998952 0.000000
vn 0.040031 -0.169362 -0.984741
vn -0.045339 -0.998869 -0.014349
vn -0.040031 -0.169362 -0.984741
vn 0.040031 0.169362 -0.984741
vn 0.984947 0.172378 -0.012895
vn -0.984947 -0.172378 -0.012895
vn -0.045774 -0.998952 0.000000
vn -0.984787 -0.173765 0.000000
vn -0.984947 0.172378 -0.012895
vn -0.040031 0.169362 -0.984741
vn 0.045339 0.998869 -0.014349
vn 0.045774 0.998952 0.000000
vn 0.984787 0.173766 0.000000
vn -0.045339 0.998869 -0.014349
vn -0.984787 0.173765 0.000000
vn -0.045774 0.998952 0.000000
vn 0.045339 -0.998869 -0.014349
vn 0.984946 -0.172379 -0.012895
vn 0.984787 -0.173766 0.000000
vn 0.045774 -0.998952 0.000000
vn 0.040031 -0.169363 -0.984740
vn -0.045339 -0.998869 -0.014349
vn -0.040031 -0.169363 -0.984740
vn 0.040031 0.169362 -0.984741
vn 0.984946 0.172379 -0.012895
vn -0.984946 -0.172378 -0.012895
vn -0.045774 -0.998952 0.000000
vn -0.984787 -0.173766 0.000000
vn -0.984946 0.172378 -0.012895
vn -0.040031 0.169362 -0.984741
vn 0.045339 0.998869 -0.014349
vn 0.045774 0.998952 0.000000
vn 0.984787 0.173766 0.000000
vn -0.045339 0.998869 -0.014349
vn -0.984787 0.173766 0.000000
vn -0.045774 0.998952 0.000000
s 1
g ESCALIER_2_LP ESCALIER_2_LP
usemtl initialShadingGroup
f 1/1/1 3/2/2 18/3/3 17/4/4
f 2/5/5 1/6/1 6/7/6 5/8/7
f 3/9/2 2/5/5 8/10/8 7/11/9
f 4/12/10 6/13/6 20/14/11 19/15/12
f 5/8/7 4/16/10 12/17/13 11/18/14
f 7/19/9 9/20/15 14/21/16 13/22/17
f 9/23/15 8/10/8 11/18/14 10/24/18
f 10/25/18 12/26/13 16/27/19 15/28/20
f 2/5/5 5/8/7 11/18/14 8/10/8
f 9/20/15 10/25/18 15/28/20 14/21/16
f 1/29/1 17/30/4 20/14/11 6/13/6
f 4/12/10 19/15/12 16/27/19 12/26/13
f 18/3/3 3/2/2 7/19/9 13/22/17
f 1/6/1 2/5/5 3/9/2
f 4/16/10 5/8/7 6/7/6
f 7/11/9 8/10/8 9/23/15
f 10/24/18 11/18/14 12/17/13
s 2
f 21/31/21 23/32/22 38/33/23 37/34/24
f 22/35/25 21/36/21 26/37/26 25/38/27
f 23/39/22 22/35/25 28/40/28 27/41/29
f 24/42/30 26/43/26 40/44/31 39/45/32
f 25/38/27 24/46/30 32/47/33 31/48/34
f 27/49/29 29/50/35 34/51/36 33/52/37
f 29/53/35 28/40/28 31/48/34 30/54/38
f 30/55/38 32/56/33 36/57/39 35/58/40
f 22/35/25 25/38/27 31/48/34 28/40/28
f 29/50/35 30/55/38 35/58/40 34/51/36
f 21/59/21 37/60/24 40/44/31 26/43/26
f 24/42/30 39/45/32 36/57/39 32/56/33
f 38/33/23 23/32/22 27/49/29 33/52/37
f 21/36/21 22/35/25 23/39/22
f 24/46/30 25/38/27 26/37/26
f 27/41/29 28/40/28 29/53/35
f 30/54/38 31/48/34 32/47/33
s 3
f 41/61/41 43/62/42 58/63/43 57/64/44
f 42/65/45 41/66/41 46/67/46 45/68/47
f 43/69/42 42/65/45 48/70/48 47/71/49
f 44/72/50 46/73/46 60/74/51 59/75/52
f 45/68/47 44/76/50 52/77/53 51/78/54
f 47/79/49 49/80/55 54/81/56 53/82/57
f 49/83/55 48/70/48 51/78/54 50/84/58
f 50/85/58 52/86/53 56/87/59 55/88/60
f 42/65/45 45/68/47 51/78/54 48/70/48
f 49/80/55 50/85/58 55/88/60 54/81/56
f 41/89/41 57/90/44 60/74/51 46/73/46
f 44/72/50 59/75/52 56/87/59 52/86/53
f 58/63/43 43/62/42 47/79/49 53/82/57
f 41/66/41 42/65/45 43/69/42
f 44/76/50 45/68/47 46/67/46
f 47/71/49 48/70/48 49/83/55
f 50/84/58 51/78/54 52/77/53
