# File produced by Open Asset Import Library (http://www.assimp.sf.net)
# (assimp v3.1.202510665)

mtllib panneau_speedlimit.mtl

# vertex positions
v -47.102604 6.918728 -17.652472
v -45.688736 6.918728 -17.652472
v -47.102604 10.198751 -17.652472
v -45.688736 10.198751 -17.652472
v -44.654343 9.407969 -17.652472
v -44.654343 7.709513 -17.652472
v -48.136993 7.709513 -17.652472
v -48.136993 9.407969 -17.652472
v -45.705357 10.149648 -17.898014
v -45.688736 10.198751 -17.848911
v -44.703445 9.383696 -17.898014
v -44.654343 9.407969 -17.848911
v -47.102604 10.198751 -17.848911
v -47.085983 10.149648 -17.898014
v -48.087891 9.383696 -17.898014
v -48.136993 9.407969 -17.848911
v -45.705357 6.967832 -17.898014
v -44.703445 7.733781 -17.898014
v -45.688736 6.918728 -17.848911
v -44.654343 7.709513 -17.848911
v -47.085983 6.967832 -17.898014
v -47.102604 6.918728 -17.848911
v -48.087891 7.733781 -17.898014
v -48.136993 7.709513 -17.848911
v -46.219833 -0.281787 -17.229523
v -46.219833 -0.281787 -17.606609
v -46.219833 10.462488 -17.229523
v -46.219833 10.462488 -17.606609
v -46.596924 10.462488 -17.229523
v -46.596924 10.462488 -17.606609
v -46.596924 -0.281787 -17.229523
v -46.596924 -0.281787 -17.606609

# UV coordinates
vt 0.239100 0.297011
vt 0.105844 0.297302
vt 0.235924 0.000000
vt 0.107085 0.000397
vt 0.013018 0.072280
vt 0.012612 0.226029
vt 0.331864 0.225097
vt 0.330457 0.071305
vt 0.111146 0.607345
vt 0.108954 0.613473
vt 0.021963 0.537014
vt 0.015863 0.539836
vt 0.236703 0.613351
vt 0.234477 0.607216
vt 0.322696 0.536667
vt 0.328776 0.539504
vt 0.112619 0.319857
vt 0.023330 0.390382
vt 0.110734 0.313730
vt 0.017256 0.387546
vt 0.232245 0.319639
vt 0.234098 0.313503
vt 0.322498 0.389997
vt 0.328591 0.387176
vt 0.001595 0.380411
vt 0.000000 0.546663
vt 0.103020 0.629943
vt 0.242525 0.629802
vt 0.344448 0.546640
vt 0.344444 0.380349
vt 0.999655 0.693762
vt 0.999828 0.727662
vt 0.033729 0.698670
vt 0.033901 0.732571
vt 0.000000 0.732743
vt 0.000172 0.766644
vt 0.034073 0.766472
vt 0.033556 0.664769
vt 0.033384 0.630868
vt 0.999483 0.659861
vt 0.999311 0.625960
vt 1.000000 0.761563

# vertex normals
vn 0.000000 0.000000 1.000000
vn 0.210936 0.654568 -0.725980
vn 0.210940 0.654566 -0.725980
vn 0.429453 0.561743 -0.707118
vn -0.210936 0.654567 -0.725981
vn -0.210932 0.654568 -0.725981
vn -0.429444 0.561746 -0.707121
vn 0.210933 -0.654576 -0.725973
vn 0.429450 -0.561754 -0.707110
vn 0.210937 -0.654575 -0.725973
vn 0.429450 -0.561754 -0.707110
vn -0.210933 -0.654576 -0.725973
vn -0.210937 -0.654575 -0.725973
vn -0.429450 -0.561754 -0.707110
vn 0.707113 0.000000 -0.707101
vn 0.707113 0.000000 -0.707101
vn 0.707113 0.000000 -0.707101
vn -0.707113 0.000000 -0.707101
vn -0.707113 0.000000 -0.707101
vn 1.000000 0.000000 0.000000
vn 0.000000 1.000000 0.000000
vn -1.000000 0.000000 0.000000
vn 0.000000 -1.000000 0.000000
vn -0.000000 0.000000 -1.000000
vn 0.000000 0.000000 -1.000000
vn -0.000000 0.000000 -1.000000
vn 0.000000 0.000000 -1.000000
vn 0.607345 -0.794438 0.000000
vn -0.000000 0.000000 -1.000000
vn -0.000000 0.000000 -1.000000
vn 0.607345 0.794438 0.000000
vn -0.607346 0.794437 0.000000
vn 0.000000 0.000000 -1.000000
vn -0.607346 -0.794437 0.000000
vn 0.000000 0.000000 -1.000000

# Mesh
g polySurface14
usemtl Car_v7_carv6_Car_v5_carmatching__1__carmatching_lambert1
f 1/1/1 2/2/1 3/3/1
f 3/3/1 2/2/1 4/4/1
f 4/4/1 2/2/1 5/5/1
f 5/5/1 2/2/1 6/6/1
f 1/1/1 3/3/1 7/7/1
f 7/7/1 3/3/1 8/8/1
f 9/9/2 10/10/3 11/11/4
f 11/11/4 10/10/3 12/12/4
f 10/10/3 9/9/2 13/13/5
f 13/13/5 9/9/2 14/14/6
f 14/14/6 15/15/7 13/13/5
f 13/13/5 15/15/7 16/16/7
f 17/17/8 18/18/9 19/19/10
f 19/19/10 18/18/9 20/20/11
f 17/17/8 19/19/10 21/21/12
f 21/21/12 19/19/10 22/22/13
f 21/21/12 22/22/13 23/23/14
f 23/23/14 22/22/13 24/24/14
f 20/20/15 18/18/16 12/12/17
f 12/12/17 18/18/16 11/11/16
f 16/16/18 15/15/19 24/24/18
f 24/24/18 15/15/19 23/23/18
f 6/25/20 20/20/20 5/26/20
f 5/26/20 20/20/20 12/12/20
f 4/27/21 10/10/21 3/28/21
f 3/28/21 10/10/21 13/13/21
f 8/29/22 16/16/22 7/30/22
f 7/30/22 16/16/22 24/24/22
f 1/1/23 22/22/23 2/2/23
f 2/2/23 22/22/23 19/19/23
f 17/17/24 21/21/25 9/9/26
f 9/9/26 21/21/25 14/14/27
f 2/2/28 19/19/28 6/25/28
f 6/25/28 19/19/28 20/20/28
f 17/17/24 9/9/26 18/18/29
f 18/18/29 9/9/26 11/11/30
f 10/10/31 4/27/31 12/12/31
f 12/12/31 4/27/31 5/26/31
f 3/28/32 13/13/32 8/29/32
f 8/29/32 13/13/32 16/16/32
f 14/14/27 21/21/25 15/15/33
f 15/15/33 21/21/25 23/23/33
f 22/22/34 1/1/34 24/24/34
f 24/24/34 1/1/34 7/30/34
f 25/31/20 26/32/20 27/33/20
f 27/33/20 26/32/20 28/34/20
f 27/35/21 28/34/21 29/36/21
f 29/36/21 28/34/21 30/37/21
f 29/38/22 30/39/22 31/40/22
f 31/40/22 30/39/22 32/41/22
f 26/32/35 32/42/35 28/34/35
f 28/34/35 32/42/35 30/37/35
f 31/40/1 25/31/1 29/38/1
f 29/38/1 25/31/1 27/33/1
