# File produced by Open Asset Import Library (http://www.assimp.sf.net)
# (assimp v3.1.202510665)

mtllib roaad2.mtl

# vertex positions
v 31.907619 -0.143834 -91.459869
v 31.907619 -0.143834 91.459869
v 31.907619 0.456759 91.459869
v 31.907619 0.456759 -91.459869
v 35.653751 0.456759 91.459869
v 35.653751 0.456759 -91.459869
v 34.729473 -0.720852 91.459869
v 34.729473 -0.720852 -91.459869
v -10.390155 -0.143834 297.551056
v 10.390155 -0.143834 297.551056
v 10.390155 -0.143834 91.459869
v -10.390155 -0.143834 91.459869
v 31.907619 -0.143834 297.551056
v 31.907619 0.456759 297.551056
v 31.907619 0.456759 -297.551056
v 31.907619 -0.143834 -297.551056
v 35.653751 0.456759 297.551056
v 35.653751 0.456759 -297.551056
v 34.729473 -0.720852 297.551056
v 34.729473 -0.720852 -297.551056
v 12.402188 -0.143834 91.459869
v 12.402188 -0.143834 297.551056
v 10.390155 -0.143834 -91.459869
v 12.402188 -0.143834 -91.459869
v 10.390155 -0.143834 -297.551056
v 12.402188 -0.143834 -297.551056
v -31.907619 -0.143834 -91.459869
v -31.907619 0.456759 -91.459869
v -31.907619 0.456759 91.459869
v -31.907619 -0.143834 91.459869
v -35.653751 0.456759 -91.459869
v -35.653751 0.456759 91.459869
v -34.729473 -0.720852 -91.459869
v -34.729473 -0.720852 91.459869
v -31.907619 0.456759 297.551056
v -31.907619 -0.143834 297.551056
v -31.907619 -0.143834 -297.551056
v -31.907619 0.456759 -297.551056
v -35.653751 0.456759 297.551056
v -35.653751 0.456759 -297.551056
v -34.729473 -0.720852 297.551056
v -34.729473 -0.720852 -297.551056
v -12.402188 -0.143834 91.459869
v -12.402188 -0.143834 297.551056
v -10.390155 -0.143834 -91.459869
v -12.402188 -0.143834 -91.459869
v -10.390155 -0.143834 -297.551056
v -12.402188 -0.143834 -297.551056

# UV coordinates
vt 0.974343 0.803123
vt 0.974255 0.000003
vt 0.976892 0.000003
vt 0.976980 0.803123
vt 0.993340 0.000001
vt 0.993427 0.803121
vt 0.999913 0.000000
vt 1.000000 0.803120
vt 0.545628 0.904863
vt 0.454391 0.904869
vt 0.454338 0.000012
vt 0.545575 0.000007
vt 0.357227 0.000018
vt 0.359864 0.000018
vt 0.359917 0.904874
vt 0.357280 0.904874
vt 0.305842 0.000003
vt 0.308479 0.000002
vt 0.308575 0.904859
vt 0.305938 0.904859
vt 0.340779 0.000019
vt 0.340832 0.904875
vt 0.324927 0.000001
vt 0.325023 0.904857
vt 0.334207 0.000019
vt 0.334260 0.904876
vt 0.331499 0.000000
vt 0.331595 0.904856
vt 0.445504 0.000013
vt 0.445557 0.904869
vt 0.879869 0.803133
vt 0.879782 0.000013
vt 0.888615 0.000012
vt 0.888703 0.803132
vt 0.211464 0.904869
vt 0.211368 0.000013
vt 0.220202 0.000012
vt 0.220298 0.904868
vt 0.694158 0.803154
vt 0.691521 0.803154
vt 0.691434 0.000034
vt 0.694071 0.000033
vt 0.675073 0.803156
vt 0.674986 0.000035
vt 0.668501 0.803156
vt 0.668413 0.000036
vt 0.642686 0.000001
vt 0.642739 0.904858
vt 0.640102 0.904858
vt 0.640049 0.000002
vt 0.025657 0.000032
vt 0.025753 0.904889
vt 0.023116 0.904889
vt 0.023020 0.000033
vt 0.659133 0.000000
vt 0.659186 0.904857
vt 0.006669 0.904891
vt 0.006573 0.000034
vt 0.665706 0.000000
vt 0.665759 0.904856
vt 0.000096 0.904891
vt 0.000000 0.000035
vt 0.554409 0.000007
vt 0.554462 0.904863
vt 0.788632 0.803143
vt 0.779798 0.803144
vt 0.779710 0.000024
vt 0.788544 0.000023
vt 0.120227 0.904879
vt 0.111393 0.904880
vt 0.111297 0.000023
vt 0.120131 0.000022

# vertex normals
vn -1.000000 0.000000 0.000000
vn 0.000000 1.000000 0.000000
vn 0.786638 -0.617414 0.000000
vn 0.786638 -0.617414 0.000000
vn 1.000000 0.000000 0.000000
vn -0.786638 -0.617414 0.000000
vn -0.786638 -0.617414 0.000000

# Mesh
g pCube2
usemtl lambert1
f 4/4/1 1/1/1 2/2/1
f 2/2/1 3/3/1 4/4/1
f 6/6/2 4/4/2 3/3/2
f 3/3/2 5/5/2 6/6/2
f 8/8/3 6/6/3 5/5/3
f 5/5/3 7/7/3 8/8/3
f 12/12/2 9/9/2 10/10/2
f 10/10/2 11/11/2 12/12/2
f 14/16/1 3/13/1 2/14/1
f 2/14/1 13/15/1 14/16/1
f 16/20/1 1/17/1 4/18/1
f 4/18/1 15/19/1 16/20/1
f 17/22/2 5/21/2 3/13/2
f 3/13/2 14/16/2 17/22/2
f 15/19/2 4/18/2 6/23/2
f 6/23/2 18/24/2 15/19/2
f 19/26/4 7/25/4 5/21/4
f 5/21/4 17/22/4 19/26/4
f 18/24/4 6/23/4 8/27/4
f 8/27/4 20/28/4 18/24/4
f 22/30/2 21/29/2 11/11/2
f 11/11/2 10/10/2 22/30/2
f 24/34/2 23/31/2 11/32/2
f 11/32/2 21/33/2 24/34/2
f 26/38/2 25/35/2 23/36/2
f 23/36/2 24/37/2 26/38/2
f 30/42/5 27/39/5 28/40/5
f 28/40/5 29/41/5 30/42/5
f 29/41/2 28/40/2 31/43/2
f 31/43/2 32/44/2 29/41/2
f 32/44/6 31/43/6 33/45/6
f 33/45/6 34/46/6 32/44/6
f 30/50/5 29/47/5 35/48/5
f 35/48/5 36/49/5 30/50/5
f 28/54/5 27/51/5 37/52/5
f 37/52/5 38/53/5 28/54/5
f 29/47/2 32/55/2 39/56/2
f 39/56/2 35/48/2 29/47/2
f 31/58/2 28/54/2 38/53/2
f 38/53/2 40/57/2 31/58/2
f 32/55/7 34/59/7 41/60/7
f 41/60/7 39/56/7 32/55/7
f 33/62/7 31/58/7 40/57/7
f 40/57/7 42/61/7 33/62/7
f 12/12/2 43/63/2 44/64/2
f 44/64/2 9/9/2 12/12/2
f 12/68/2 45/65/2 46/66/2
f 46/66/2 43/67/2 12/68/2
f 45/72/2 47/69/2 48/70/2
f 48/70/2 46/71/2 45/72/2
f 11/32/2 23/31/2 45/65/2
f 45/65/2 12/68/2 11/32/2
f 23/36/2 25/35/2 47/69/2
f 47/69/2 45/72/2 23/36/2
f 13/15/2 2/14/2 21/29/2
f 21/29/2 22/30/2 13/15/2
f 1/1/2 24/34/2 21/33/2
f 21/33/2 2/2/2 1/1/2
f 16/20/2 26/38/2 24/37/2
f 24/37/2 1/17/2 16/20/2
f 46/71/2 48/70/2 37/52/2
f 37/52/2 27/51/2 46/71/2
f 30/42/2 43/67/2 46/66/2
f 46/66/2 27/39/2 30/42/2
f 43/63/2 30/50/2 36/49/2
f 36/49/2 44/64/2 43/63/2
