# This file uses centimeters as units for non-parametric coordinates.

mtllib TOIT_LP.mtl
g default
v 730.616821 257.588776 280.218903
v 903.446045 257.588776 280.218903
v 730.616699 305.837402 280.218903
v 903.446045 305.837402 280.218903
v 730.616699 305.837402 -10.972569
v 903.446045 305.837402 -10.972569
v 730.616821 257.588776 -10.972569
v 903.446045 257.588776 -10.972569
v 486.214478 664.145386 280.218903
v 691.111023 664.145386 280.218903
v 486.214478 664.145386 -10.972569
v 691.111023 664.145386 -10.972569
vt 0.995117 0.347728
vt 0.995022 0.004883
vt 0.004883 0.588144
vt 0.004978 0.930990
vt 0.582526 0.587985
vt 0.582621 0.930830
vt 0.417474 0.347888
vt 0.417379 0.005042
vt 0.411341 0.582545
vt 0.004883 0.582526
vt 0.004910 0.004883
vt 0.411368 0.004902
vn 0.000000 1.000000 0.000000
vn 0.000000 1.000000 0.000000
vn 0.000000 1.000000 0.000000
vn 0.000000 1.000000 0.000000
vn 0.000000 -1.000000 0.000000
vn 0.000000 -1.000000 0.000000
vn 0.000000 -1.000000 0.000000
vn 0.000000 -1.000000 0.000000
vn 0.000000 -1.000000 0.000000
vn 0.000000 -1.000000 0.000000
vn 0.000000 -1.000000 0.000000
vn 0.000000 -1.000000 0.000000
s off
g pasted__pCube52
usemtl initialShadingGroup
f 3/4/1 4/3/2 6/5/3 5/6/4
f 7/7/5 8/8/6 2/2/7 1/1/8
f 11/9/9 12/10/10 10/11/11 9/12/12
