# This file uses centimeters as units for non-parametric coordinates.

mtllib CHAMBRE_LP.mtl
g default
v 176.256851 661.704956 280.218903
v 487.373688 661.704956 280.218903
v 176.256851 317.287933 280.218903
v 725.222839 317.287933 280.218903
v 737.683838 300.740662 278.118896
v 176.256851 300.740662 278.118896
v 176.256851 316.238037 278.118896
v 176.256851 317.287933 279.168793
v 725.947876 316.238037 278.118896
v 725.222839 317.287933 279.168793
v 176.256851 661.704956 -10.972569
v 487.373688 661.704956 -10.972569
v 176.256851 317.287933 -10.972569
v 725.222839 317.287933 -10.972569
v 176.256851 300.740662 -8.872568
v 737.683838 300.740662 -8.872568
v 176.256851 316.238037 -8.872568
v 176.256851 317.287933 -9.922463
v 725.947876 316.238037 -8.872568
v 725.222839 317.287933 -9.922463
vt 0.004883 0.004970
vt 0.348218 0.004883
vt 0.004979 0.385054
vt 0.610795 0.384900
vt 0.004980 0.387852
vt 0.624552 0.404797
vt 0.004985 0.404954
vt 0.610796 0.386059
vt 0.004980 0.386213
vt 0.611596 0.387698
vt 0.595133 0.004883
vt 0.975218 0.004883
vt 0.975218 0.610699
vt 0.595133 0.348218
vt 0.978015 0.611499
vt 0.978015 0.004883
vt 0.995117 0.004883
vt 0.995117 0.624450
vt 0.976376 0.004883
vt 0.976376 0.610699
vn 0.000000 0.000000 -1.000000
vn 0.000000 0.000000 -1.000000
vn 0.000000 0.000000 -1.000000
vn 0.000000 0.000000 -1.000000
vn 0.000000 0.000000 -1.000000
vn 0.000000 0.000000 -1.000000
vn 0.000000 0.000000 -1.000000
vn 0.000000 0.000000 -1.000000
vn 0.000000 1.000000 0.000000
vn 0.000000 1.000000 0.000000
vn 0.000000 1.000000 0.000000
vn 0.000000 1.000000 0.000000
vn 0.000000 0.707109 -0.707105
vn 0.000000 0.707109 -0.707105
vn 0.000000 0.707109 -0.707105
vn 0.000000 0.707109 -0.707105
vn 0.000000 0.000000 1.000000
vn 0.000000 0.000000 1.000000
vn 0.000000 0.000000 1.000000
vn 0.000000 0.000000 1.000000
vn 0.000000 0.000000 1.000000
vn 0.000000 0.000000 1.000000
vn 0.000000 0.000000 1.000000
vn 0.000000 0.000000 1.000000
vn 0.000000 1.000000 0.000000
vn 0.000000 1.000000 0.000000
vn 0.000000 1.000000 0.000000
vn 0.000000 1.000000 0.000000
vn 0.000000 0.707109 0.707105
vn 0.000000 0.707109 0.707105
vn 0.000000 0.707109 0.707105
vn 0.000000 0.707109 0.707105
s off
g CHAMBRE_MUR_LP CHAMBRE_LP
usemtl PxrSurface1SG
f 7/5/1 9/10/2 5/6/3 6/7/4
f 1/1/5 2/2/6 4/4/7 3/3/8
f 3/3/9 4/4/10 10/8/11 8/9/12
f 7/5/13 8/9/14 10/8/15 9/10/16
f 11/11/17 13/12/18 14/13/19 12/14/20
f 19/15/21 17/16/22 15/17/23 16/18/24
f 14/13/25 13/12/26 18/19/27 20/20/28
f 18/19/29 17/16/30 19/15/31 20/20/32
g default
v 179.655075 255.305557 285.351135
v 187.379822 255.305557 285.351135
v 179.655075 305.293915 285.351135
v 187.379822 305.293915 285.351135
v 179.655075 305.293915 -11.346975
v 187.379822 305.293915 -11.346975
v 179.655075 255.305557 -11.346975
v 187.379822 255.305557 -11.346975
v 179.083054 264.117615 285.351105
v 179.655075 263.545563 285.351105
v 179.655075 263.545563 -11.346975
v 179.083054 264.117615 -11.346975
v 179.655075 274.452911 285.351105
v 179.083054 273.880859 285.351105
v 179.083054 273.880859 -11.346975
v 179.655075 274.452911 -11.346975
v 177.366699 264.689667 285.351105
v 177.938721 264.117615 285.351105
v 177.938721 264.117615 -11.346975
v 177.366699 264.689667 -11.346975
v 177.938721 273.880859 285.351105
v 177.366699 273.308807 285.351105
v 177.366699 273.308807 -11.346975
v 177.938721 273.880859 -11.346975
v 184.719421 303.349426 280.218903
v 184.719421 303.349426 -10.972569
v 732.213867 303.349426 280.218903
v 732.213867 303.349426 -10.972569
v 187.379822 302.837402 285.351135
v 187.379822 302.837402 -11.346975
vt 0.750979 0.008575
vt 0.776568 0.008572
vt 0.776689 0.991401
vt 0.751100 0.991404
vt 0.574790 0.991426
vt 0.549201 0.991429
vt 0.549080 0.008600
vt 0.574669 0.008597
vt 0.601964 0.008593
vt 0.602086 0.991423
vt 0.611236 0.991421
vt 0.611115 0.008592
vt 0.639666 0.008589
vt 0.639787 0.991418
vt 0.648937 0.991417
vt 0.648816 0.008588
vt 0.604765 0.991422
vt 0.604644 0.008593
vt 0.608435 0.008593
vt 0.608556 0.991422
vt 0.646137 0.008588
vt 0.646257 0.991417
vt 0.642467 0.991418
vt 0.642346 0.008588
vt 0.490831 0.008571
vt 0.491105 0.916763
vt 0.008071 0.916909
vt 0.007798 0.008716
vt 0.784705 0.008571
vt 0.784826 0.991400
vn 0.000000 1.000000 0.000000
vn 0.000000 1.000000 0.000000
vn 0.000000 1.000000 0.000000
vn 0.000000 1.000000 0.000000
vn 0.000000 -1.000000 0.000000
vn 0.000000 -1.000000 0.000000
vn 0.000000 -1.000000 0.000000
vn 0.000000 -1.000000 0.000000
vn -1.000000 -0.000002 0.000000
vn -1.000000 -0.000002 0.000000
vn -1.000000 -0.000002 0.000000
vn -1.000000 -0.000002 0.000000
vn -1.000000 0.000000 0.000000
vn -1.000000 0.000000 0.000000
vn -1.000000 0.000000 0.000000
vn -1.000000 0.000000 0.000000
vn -1.000000 0.000000 0.000000
vn -1.000000 0.000000 0.000000
vn -1.000000 0.000000 0.000000
vn -1.000000 0.000000 0.000000
vn 0.000000 -1.000000 0.000000
vn 0.000000 -1.000000 0.000000
vn 0.000000 -1.000000 0.000000
vn 0.000000 -1.000000 0.000000
vn 0.000000 1.000000 0.000000
vn 0.000000 1.000000 0.000000
vn 0.000000 1.000000 0.000000
vn 0.000000 1.000000 0.000000
vn -0.707132 -0.707082 0.000000
vn -0.707132 -0.707082 0.000000
vn -0.707132 -0.707082 0.000000
vn -0.707132 -0.707082 0.000000
vn -0.707132 0.707082 0.000000
vn -0.707132 0.707082 0.000000
vn -0.707132 0.707082 0.000000
vn -0.707132 0.707082 0.000000
vn -0.707123 -0.707090 0.000000
vn -0.707123 -0.707090 0.000000
vn -0.707123 -0.707090 0.000000
vn -0.707123 -0.707090 0.000000
vn -0.707123 0.707090 0.000000
vn -0.707123 0.707090 0.000000
vn -0.707123 0.707090 0.000000
vn -0.707123 0.707090 0.000000
vn 0.000000 1.000000 0.000000
vn 0.000000 1.000000 0.000000
vn 0.000000 1.000000 0.000000
vn 0.000000 1.000000 0.000000
vn 1.000000 0.000000 0.000000
vn 1.000000 0.000000 0.000000
vn 1.000000 0.000000 0.000000
vn 1.000000 0.000000 0.000000
s off
g CHAMBRE_LP CHAMBRE_SOL_LP
usemtl PxrSurface2SG
f 23/21/33 24/22/34 26/23/35 25/24/36
f 27/25/37 28/26/38 22/27/39 21/28/40
f 27/25/41 21/28/42 30/29/43 31/30/44
f 40/31/45 37/32/46 42/33/47 43/34/48
f 36/35/49 33/36/50 23/21/51 25/24/52
f 32/37/53 29/38/54 38/39/55 39/40/56
f 34/41/57 35/42/58 44/43/59 41/44/60
f 30/29/61 29/38/62 32/37/63 31/30/64
f 34/41/65 33/36/66 36/35/67 35/42/68
f 38/39/69 37/32/70 40/31/71 39/40/72
f 42/33/73 41/44/74 44/43/75 43/34/76
f 45/45/77 47/46/78 48/47/79 46/48/80
f 26/23/81 24/22/82 49/49/83 50/50/84
g default
v 160.912775 661.704989 283.464958
v 487.373688 661.704989 283.464958
v 160.912775 661.704989 -14.218619
v 487.373688 661.704989 -14.218619
vt 0.004883 0.004910
vt 0.995092 0.004883
vt 0.995117 0.907806
vt 0.004908 0.907833
vn 0.000000 -1.000000 -0.000000
vn 0.000000 -1.000000 -0.000000
vn 0.000000 -1.000000 -0.000000
vn 0.000000 -1.000000 -0.000000
s off
g CHAMBRE_LP CHAMBRE_PLAFOND_LP
usemtl PxrSurface3SG
f 53/51/85 54/52/86 52/53/87 51/54/88
