# This file uses centimeters as units for non-parametric coordinates.

mtllib ESCALIERS_LP.mtl
g default
v 177.839813 -158.255264 280.218933
v 177.839813 675.773132 280.218933
v -27.921173 -420.178528 280.218933
v -27.921173 444.666962 280.218933
v 24.914886 -352.920898 280.218933
v 28.415306 -348.465027 276.718506
v 28.415302 507.942810 276.718506
v 24.914883 504.011230 280.218933
v 128.116638 -221.550339 276.718506
v 131.617050 -217.094482 280.218933
v 131.617050 590.782532 280.218933
v 128.116638 586.850952 276.718506
v 28.415306 -348.465027 266.215515
v 31.915726 -344.009186 262.715118
v 31.915722 511.874390 262.715118
v 28.415302 507.942810 266.215515
v 128.116638 586.850952 266.215515
v 124.616219 582.919373 262.715118
v 124.616219 -226.006195 262.715118
v 128.116638 -221.550339 266.215515
v 177.839813 -158.255264 -10.972565
v 177.839813 642.698975 -10.972565
v -27.921183 -420.178528 -10.972565
v -27.921183 411.592834 -10.972565
v 164.629807 627.861755 -10.972565
v 164.629807 -175.070938 -10.972565
v 164.629807 627.861755 -5.825317
v 164.629807 -175.070938 -5.825317
v 177.839813 -158.255264 -5.825317
v 177.839813 642.698975 -5.825317
vt 0.046569 0.188540
vt 0.047481 0.918293
vt 0.005824 0.995117
vt 0.004883 0.241741
vt 0.215640 0.786097
vt 0.167981 0.839762
vt 0.167013 0.065697
vt 0.214664 0.004884
vt 0.148593 0.073770
vt 0.149559 0.846888
vt 0.065903 0.911167
vt 0.064990 0.180467
vt 0.162547 0.069728
vt 0.163514 0.843319
vt 0.154026 0.843331
vt 0.153059 0.069740
vt 0.051949 0.914736
vt 0.051036 0.184509
vt 0.060523 0.184497
vt 0.061436 0.914724
vt 0.398937 0.951601
vt 0.399040 0.226314
vt 0.410970 0.241505
vt 0.410867 0.965006
vt 0.394287 0.951601
vt 0.394390 0.226313
vt 0.415620 0.241505
vt 0.415517 0.965006
vt 0.220491 0.004883
vt 0.220384 0.756221
vn 0.200847 0.000000 -0.979623
vn 0.024734 0.000000 -0.999694
vn 0.000000 0.000000 -1.000000
vn 0.000000 0.000000 -1.000000
vn 0.000000 0.000000 -1.000000
vn -0.166515 -0.000000 -0.986039
vn -0.021821 -0.000000 -0.999762
vn 0.000000 0.000000 -1.000000
vn -0.117623 -0.000000 -0.993058
vn -0.015460 -0.000000 -0.999880
vn 0.082038 0.000000 -0.996629
vn 0.012263 0.000000 -0.999925
vn -0.950088 -0.000000 -0.311983
vn -0.987392 -0.000000 -0.158297
vn -0.951791 -0.000000 -0.306747
vn -0.988804 -0.000000 -0.149218
vn 1.000000 0.000000 0.000000
vn 1.000000 0.000000 0.000000
vn 1.000000 0.000000 0.000000
vn 1.000000 0.000000 0.000000
vn 0.707106 0.000000 -0.707108
vn 0.707106 0.000000 -0.707108
vn 0.707106 0.000000 -0.707107
vn 0.707106 0.000000 -0.707107
vn -0.246039 0.000000 0.969260
vn -0.677175 0.000000 0.735822
vn -0.000000 0.000000 1.000000
vn -0.000000 0.000000 1.000000
vn -0.056614 0.000000 0.998396
vn -0.016659 0.000000 0.999861
vn 1.000000 0.000000 0.000000
vn 1.000000 0.000000 0.000000
vn 1.000000 0.000000 0.000000
vn 1.000000 0.000000 0.000000
vn 0.000000 0.000000 1.000000
vn 0.000000 0.000000 1.000000
s 1
g ESCALIER_MUR_LP ESCALIERARCHI_LP
usemtl PxrSurface17SG
f 10/1/1 11/2/2 2/3/3 1/4/4
s 2
f 4/5/5 8/6/6 5/7/7 3/8/8
f 14/9/9 15/10/10 18/11/11 19/12/12
f 6/13/13 7/14/14 16/15/15 13/16/16
s off
f 12/17/17 9/18/18 20/19/19 17/20/20
s 2
f 6/13/13 5/7/7 8/6/6 7/14/14
s 1
f 10/1/1 9/18/21 12/17/22 11/2/2
s 2
f 14/9/9 13/16/16 16/15/15 15/10/10
f 18/11/11 17/20/23 20/19/24 19/12/12
s 4
f 27/21/25 28/22/26 29/23/27 30/24/28
f 25/25/29 26/26/30 28/22/26 27/21/25
s off
f 21/27/31 22/28/32 30/24/33 29/23/34
s 4
f 23/29/35 26/26/30 25/25/29 24/30/36
g default
v 188.372177 642.554443 284.633179
v 193.697632 661.512390 284.633179
v 193.697632 661.512390 -17.152870
v 188.372177 642.554443 -17.152870
v 202.200012 659.812195 284.633179
v 200.499741 661.512390 284.633179
v 200.499741 661.512390 -17.152870
v 202.200012 659.812195 -17.152870
v 200.499741 642.554443 284.633179
v 202.200012 644.254761 284.633179
v 202.200012 644.254761 -17.152870
v 200.499741 642.554443 -17.152870
v -28.885433 391.859161 287.719757
v 198.359009 648.987427 287.719757
v -28.885433 391.859161 -18.473442
v 198.359009 648.987427 -18.473434
v 198.359024 699.281067 -18.473434
v 198.359024 699.281067 287.719757
vt 0.210626 0.995117
vt 0.210625 0.979643
vt 0.897168 0.979599
vt 0.897169 0.995073
vt 0.897164 0.905677
vt 0.897165 0.933267
vt 0.210622 0.933310
vt 0.210620 0.905721
vt 0.210622 0.938781
vt 0.897166 0.938737
vt 0.897168 0.974129
vt 0.210625 0.974173
vt 0.701452 0.004883
vt 0.701538 0.785537
vt 0.004968 0.785613
vt 0.004883 0.004959
vt 0.701550 0.899951
vt 0.004981 0.900028
vn 0.000000 1.000000 0.000000
vn 0.196085 0.980587 0.000000
vn 0.196085 0.980587 0.000000
vn 0.000000 1.000000 0.000000
vn 0.000000 -1.000000 0.000000
vn 0.122044 -0.992525 0.000000
vn 0.122044 -0.992525 0.000000
vn 0.000000 -1.000000 0.000000
vn 0.995182 -0.098047 0.000000
vn 0.995182 -0.098047 0.000000
vn 0.995182 0.098048 0.000000
vn 0.995182 0.098048 0.000000
vn 0.749308 -0.662222 0.000000
vn 0.804152 -0.594424 0.000000
vn 0.804152 -0.594424 0.000000
vn 0.749308 -0.662222 0.000000
vn 1.000000 -0.000000 0.000000
vn 1.000000 -0.000000 0.000000
s 1
g ESCALIERARCHI_LP ESCALIER_PLAFOND_LP
usemtl PxrSurface18SG
f 32/31/37 36/32/38 37/33/39 33/34/40
f 34/35/41 42/36/42 39/37/43 31/38/44
f 40/39/45 41/40/46 38/41/47 35/42/48
f 36/32/38 35/42/48 38/41/47 37/33/39
f 40/39/45 39/37/43 42/36/42 41/40/46
s 3
f 45/43/49 46/44/50 44/45/51 43/46/52
f 44/45/51 46/44/50 47/47/53 48/48/54
