# File produced by Open Asset Import Library (http://www.assimp.sf.net)
# (assimp v3.1.202510665)

mtllib batmedium.mtl

# vertex positions
v -72.056999 33.083363 262.587616
v -70.333939 33.083363 262.587616
v -72.056999 48.507160 262.587616
v -70.333939 48.507160 262.587616
v -72.056999 48.507160 161.396683
v -70.333939 48.507160 161.396683
v -72.056999 33.083363 161.396683
v -70.333939 33.083363 161.396683
v -167.674896 24.159035 279.623474
v -69.504585 24.159035 279.623474
v -167.674896 28.796900 279.623474
v -69.504585 28.796900 279.623474
v -167.674896 28.796900 146.810043
v -69.504585 28.796900 146.810043
v -167.674896 24.159035 146.810043
v -69.504585 24.159035 146.810043
v -77.549530 -0.599827 183.091888
v -73.047668 -0.599827 183.091888
v -77.549530 54.369972 183.091888
v -73.047668 54.369972 183.091888
v -77.549530 54.369972 180.623474
v -73.047668 54.369972 180.623474
v -77.549530 -0.599827 180.623474
v -73.047668 -0.599827 180.623474
v -77.549530 -0.599827 214.450974
v -73.047668 -0.599827 214.450974
v -77.549530 54.369972 214.450974
v -73.047668 54.369972 214.450974
v -77.549530 54.369972 211.982559
v -73.047668 54.369972 211.982559
v -77.549530 -0.599827 211.982559
v -73.047668 -0.599827 211.982559
v -77.549530 -0.599827 245.869476
v -73.047668 -0.599827 245.869476
v -77.549530 54.369972 245.869476
v -73.047668 54.369972 245.869476
v -77.549530 54.369972 243.401062
v -73.047668 54.369972 243.401062
v -77.549530 -0.599827 243.401062
v -73.047668 -0.599827 243.401062
v -163.131638 -0.616667 274.852417
v -74.047852 -0.616667 274.852417
v -163.131638 55.457958 274.852417
v -74.047852 55.457958 274.852417
v -163.131638 55.457958 151.581116
v -74.047852 55.457958 151.581116
v -163.131638 -0.616667 151.581116
v -74.047852 -0.616667 151.581116
v -78.104904 -3.116049 277.362274
v -71.872803 -3.116049 277.362274
v -78.104904 55.498268 277.362274
v -71.872803 55.498268 277.362274
v -78.104904 55.498268 271.130157
v -71.872803 55.498268 271.130157
v -78.104904 -3.116049 271.130157
v -71.872803 -3.116049 271.130157
v -167.674896 52.553810 279.623474
v -69.504585 52.553810 279.623474
v -167.674896 57.191673 279.623474
v -69.504585 57.191673 279.623474
v -167.674896 57.191673 146.810028
v -69.504585 57.191673 146.810028
v -167.674896 52.553810 146.810028
v -69.504585 52.553810 146.810028
v -78.104904 -3.116049 155.357803
v -71.872803 -3.116049 155.357803
v -78.104904 55.498268 155.357803
v -71.872803 55.498268 155.357803
v -78.104904 55.498268 149.125687
v -71.872803 55.498268 149.125687
v -78.104904 -3.116049 149.125687
v -71.872803 -3.116049 149.125687
v -165.529892 -3.116049 155.357803
v -159.297791 -3.116049 155.357803
v -165.529892 55.498268 155.357803
v -159.297791 55.498268 155.357803
v -165.529892 55.498268 149.125687
v -159.297791 55.498268 149.125687
v -165.529892 -3.116049 149.125687
v -159.297791 -3.116049 149.125687
v -165.529892 -3.116049 277.362274
v -159.297791 -3.116049 277.362274
v -165.529892 55.498268 277.362274
v -159.297791 55.498268 277.362274
v -165.529892 55.498268 271.130157
v -159.297791 55.498268 271.130157
v -165.529892 -3.116049 271.130157
v -159.297791 -3.116049 271.130157

# UV coordinates
vt 0.340125 0.811681
vt 0.342541 0.815583
vt 0.340105 0.861076
vt 0.342790 0.857369
vt 0.614125 0.861111
vt 0.611709 0.857209
vt 0.614145 0.811716
vt 0.611460 0.815423
vt 0.921919 0.000003
vt 0.921902 0.265742
vt 0.881414 0.000000
vt 0.881398 0.265740
vt 0.241458 0.800247
vt 0.239510 0.542447
vt 0.253637 0.800155
vt 0.251689 0.542355
vt 0.602411 0.797520
vt 0.600464 0.539721
vt 0.614590 0.797428
vt 0.612643 0.539629
vt 0.966720 0.742186
vt 0.966725 0.999993
vt 0.617936 0.742193
vt 0.617941 1.000000
vt 0.251597 0.530176
vt 0.600371 0.527541
vt 0.602503 0.809699
vt 0.253729 0.812334
vt 0.000000 0.000002
vt 0.011822 0.000001
vt 0.000007 0.144359
vt 0.011830 0.144358
vt 0.030134 0.144357
vt 0.018312 0.144358
vt 0.030127 0.000000
vt 0.018305 0.000001
vt 0.067063 0.000002
vt 0.078885 0.000001
vt 0.067070 0.144359
vt 0.078893 0.144358
vt 0.097197 0.144357
vt 0.085375 0.144358
vt 0.097190 0.000000
vt 0.085368 0.000001
vt 0.033531 0.000002
vt 0.045354 0.000001
vt 0.033539 0.144359
vt 0.045361 0.144358
vt 0.063666 0.144357
vt 0.051843 0.144358
vt 0.063659 0.000000
vt 0.051836 0.000001
vt 0.000000 0.381189
vt 0.000023 0.147244
vt 0.147259 0.381203
vt 0.147282 0.147259
vt 0.470984 0.381235
vt 0.471007 0.147290
vt 0.618243 0.381250
vt 0.618266 0.147305
vt 0.147296 0.000000
vt 0.471021 0.000032
vt 0.470969 0.528494
vt 0.147244 0.528462
vt 0.934090 0.153932
vt 0.950456 0.153931
vt 0.934099 0.307860
vt 0.950466 0.307859
vt 0.983198 0.307857
vt 0.966832 0.307858
vt 0.983189 0.153929
vt 0.966823 0.153930
vt 0.999555 0.153928
vt 0.999565 0.307856
vt 0.630084 0.369051
vt 0.887890 0.368373
vt 0.630116 0.381230
vt 0.887922 0.380552
vt 0.631033 0.730013
vt 0.888840 0.729335
vt 0.631066 0.742193
vt 0.888872 0.741514
vt 0.880534 0.348814
vt 0.622727 0.348784
vt 0.880574 0.000030
vt 0.622767 0.000000
vt 0.900102 0.380520
vt 0.901019 0.729303
vt 0.618854 0.730045
vt 0.617936 0.381262
vt 0.000000 0.381200
vt 0.016366 0.381199
vt 0.000009 0.535128
vt 0.016376 0.535127
vt 0.049108 0.535125
vt 0.032742 0.535126
vt 0.049099 0.381196
vt 0.032732 0.381198
vt 0.065465 0.381195
vt 0.065475 0.535124
vt 0.924510 0.000004
vt 0.940876 0.000003
vt 0.924519 0.153932
vt 0.940885 0.153931
vt 0.973618 0.153929
vt 0.957252 0.153930
vt 0.973608 0.000001
vt 0.957242 0.000002
vt 0.989975 0.000000
vt 0.989984 0.153928
vt 0.934090 0.307861
vt 0.950456 0.307860
vt 0.934099 0.461789
vt 0.950466 0.461788
vt 0.983198 0.461786
vt 0.966832 0.461787
vt 0.983189 0.307858
vt 0.966823 0.307859
vt 0.999555 0.307857
vt 0.999565 0.461785

# vertex normals
vn 0.000000 0.000000 1.000000
vn 0.000000 1.000000 0.000000
vn 0.000000 0.000000 -1.000000
vn 0.000000 -1.000000 0.000000
vn 1.000000 0.000000 0.000000
vn -1.000000 0.000000 0.000000

# Mesh
g building_medium
usemtl lambert1
f 1/1/1 2/2/1 3/3/1
f 3/3/1 2/2/1 4/4/1
f 3/3/2 4/4/2 5/5/2
f 5/5/2 4/4/2 6/6/2
f 5/5/3 6/6/3 7/7/3
f 7/7/3 6/6/3 8/8/3
f 7/7/4 8/8/4 1/1/4
f 1/1/4 8/8/4 2/2/4
f 2/2/5 8/8/5 4/4/5
f 4/4/5 8/8/5 6/6/5
f 7/9/6 1/10/6 5/11/6
f 5/11/6 1/10/6 3/12/6
f 9/13/1 10/14/1 11/15/1
f 11/15/1 10/14/1 12/16/1
f 11/15/2 12/16/2 13/17/2
f 13/17/2 12/16/2 14/18/2
f 13/17/3 14/18/3 15/19/3
f 15/19/3 14/18/3 16/20/3
f 15/21/4 16/22/4 9/23/4
f 9/23/4 16/22/4 10/24/4
f 10/25/5 16/26/5 12/16/5
f 12/16/5 16/26/5 14/18/5
f 15/27/6 9/28/6 13/17/6
f 13/17/6 9/28/6 11/15/6
f 17/29/1 18/30/1 19/31/1
f 19/31/1 18/30/1 20/32/1
f 21/33/3 22/34/3 23/35/3
f 23/35/3 22/34/3 24/36/3
f 18/30/5 24/36/5 20/32/5
f 20/32/5 24/36/5 22/34/5
f 25/37/1 26/38/1 27/39/1
f 27/39/1 26/38/1 28/40/1
f 29/41/3 30/42/3 31/43/3
f 31/43/3 30/42/3 32/44/3
f 26/38/5 32/44/5 28/40/5
f 28/40/5 32/44/5 30/42/5
f 33/45/1 34/46/1 35/47/1
f 35/47/1 34/46/1 36/48/1
f 37/49/3 38/50/3 39/51/3
f 39/51/3 38/50/3 40/52/3
f 34/46/5 40/52/5 36/48/5
f 36/48/5 40/52/5 38/50/5
f 41/53/1 42/54/1 43/55/1
f 43/55/1 42/54/1 44/56/1
f 43/55/2 44/56/2 45/57/2
f 45/57/2 44/56/2 46/58/2
f 45/57/3 46/58/3 47/59/3
f 47/59/3 46/58/3 48/60/3
f 42/61/5 48/62/5 44/56/5
f 44/56/5 48/62/5 46/58/5
f 47/63/6 41/64/6 45/57/6
f 45/57/6 41/64/6 43/55/6
f 49/65/1 50/66/1 51/67/1
f 51/67/1 50/66/1 52/68/1
f 53/69/3 54/70/3 55/71/3
f 55/71/3 54/70/3 56/72/3
f 50/66/5 56/72/5 52/68/5
f 52/68/5 56/72/5 54/70/5
f 55/71/6 49/73/6 53/69/6
f 53/69/6 49/73/6 51/74/6
f 57/75/1 58/76/1 59/77/1
f 59/77/1 58/76/1 60/78/1
f 59/77/2 60/78/2 61/79/2
f 61/79/2 60/78/2 62/80/2
f 61/79/3 62/80/3 63/81/3
f 63/81/3 62/80/3 64/82/3
f 63/83/4 64/84/4 57/85/4
f 57/85/4 64/84/4 58/86/4
f 58/87/5 64/88/5 60/78/5
f 60/78/5 64/88/5 62/80/5
f 63/89/6 57/90/6 61/79/6
f 61/79/6 57/90/6 59/77/6
f 65/91/1 66/92/1 67/93/1
f 67/93/1 66/92/1 68/94/1
f 69/95/3 70/96/3 71/97/3
f 71/97/3 70/96/3 72/98/3
f 66/92/5 72/98/5 68/94/5
f 68/94/5 72/98/5 70/96/5
f 71/97/6 65/99/6 69/95/6
f 69/95/6 65/99/6 67/100/6
f 73/101/1 74/102/1 75/103/1
f 75/103/1 74/102/1 76/104/1
f 77/105/3 78/106/3 79/107/3
f 79/107/3 78/106/3 80/108/3
f 74/102/5 80/108/5 76/104/5
f 76/104/5 80/108/5 78/106/5
f 79/107/6 73/109/6 77/105/6
f 77/105/6 73/109/6 75/110/6
f 81/111/1 82/112/1 83/113/1
f 83/113/1 82/112/1 84/114/1
f 85/115/3 86/116/3 87/117/3
f 87/117/3 86/116/3 88/118/3
f 82/112/5 88/118/5 84/114/5
f 84/114/5 88/118/5 86/116/5
f 87/117/6 81/119/6 85/115/6
f 85/115/6 81/119/6 83/120/6
